# xmcd CD database file
# Copyright (C) 1995-1998 Ti Kan
#
# Track frame offsets:
#	150
#	27290
#	45697
#	77535
#	94300
#	120760
#	137785
#	146450
#	167485
#	177440
#	193357
#	214287
#	231922
#	251122
#	264035
#
# Disc length: 3524 seconds
#
# Revision: 1
# Processed by: cddbd v1.4PL0 Copyright (c) Steve Scherf et al.
# Submitted via: CDex 1.30Release
#
DISCID=cf0dc20f
DTITLE=Robert "Bilbo" Walker - Promised Land
DYEAR=1997
DGENRE=Blues
TTITLE0=Goin' To The Train Station
TTITLE1=Please Love Me
TTITLE2=Just A Country Boy
TTITLE3=Promised Land
TTITLE4=You Took My Love
TTITLE5=Still A Fool
TTITLE6=The Wild Side of Life
TTITLE7=Everything Gonna Be Alright
TTITLE8=Baby, Baby, Baby
TTITLE9=How Much More
TTITLE10=Better Lovin' Man
TTITLE11=Hold That Train, Conductor
TTITLE12=Got My Mojo Working
TTITLE13=Berry Pickin'
TTITLE14=n/a
EXTD=YEAR: 1997 ID3G:   0
EXTT0=
EXTT1=
EXTT2=
EXTT3=
EXTT4=
EXTT5=
EXTT6=
EXTT7=
EXTT8=
EXTT9=
EXTT10=
EXTT11=
EXTT12=
EXTT13=
EXTT14=
PLAYORDER=
